<svg width="21" height="20" viewBox="0 0 21 20" fill="none" xmlns="http://www.w3.org/2000/svg">
<path d="M15.7306 3.46C15.4933 3.46 15.2613 3.53038 15.0639 3.66224C14.8666 3.79409 14.7128 3.98151 14.622 4.20078C14.5311 4.42005 14.5074 4.66133 14.5537 4.89411C14.6 5.12689 14.7143 5.34071 14.8821 5.50853C15.0499 5.67635 15.2637 5.79064 15.4965 5.83694C15.7293 5.88324 15.9706 5.85948 16.1898 5.76866C16.4091 5.67783 16.5965 5.52402 16.7284 5.32668C16.8602 5.12935 16.9306 4.89734 16.9306 4.66C16.9306 4.34174 16.8042 4.03652 16.5792 3.81147C16.3541 3.58643 16.0489 3.46 15.7306 3.46ZM20.3306 5.88C20.3112 5.0503 20.1558 4.2294 19.8706 3.45C19.6164 2.78313 19.2206 2.17928 18.7106 1.68C18.2154 1.16743 17.6102 0.774176 16.9406 0.53C16.1633 0.236161 15.3415 0.07721 14.5106 0.0599999C13.4506 -5.58794e-08 13.1106 0 10.3906 0C7.67062 0 7.33063 -5.58794e-08 6.27063 0.0599999C5.43978 0.07721 4.61797 0.236161 3.84062 0.53C3.1723 0.776649 2.56756 1.16956 2.07063 1.68C1.55805 2.17518 1.1648 2.78044 0.920625 3.45C0.626786 4.22734 0.467835 5.04915 0.450625 5.88C0.390625 6.94 0.390625 7.28 0.390625 10C0.390625 12.72 0.390625 13.06 0.450625 14.12C0.467835 14.9508 0.626786 15.7727 0.920625 16.55C1.1648 17.2196 1.55805 17.8248 2.07063 18.32C2.56756 18.8304 3.1723 19.2234 3.84062 19.47C4.61797 19.7638 5.43978 19.9228 6.27063 19.94C7.33063 20 7.67062 20 10.3906 20C13.1106 20 13.4506 20 14.5106 19.94C15.3415 19.9228 16.1633 19.7638 16.9406 19.47C17.6102 19.2258 18.2154 18.8326 18.7106 18.32C19.2229 17.8226 19.619 17.2182 19.8706 16.55C20.1558 15.7706 20.3112 14.9497 20.3306 14.12C20.3306 13.06 20.3906 12.72 20.3906 10C20.3906 7.28 20.3906 6.94 20.3306 5.88ZM18.5306 14C18.5233 14.6348 18.4084 15.2637 18.1906 15.86C18.031 16.2952 17.7745 16.6884 17.4406 17.01C17.1163 17.3405 16.7239 17.5964 16.2906 17.76C15.6943 17.9778 15.0654 18.0927 14.4306 18.1C13.4306 18.15 13.0606 18.16 10.4306 18.16C7.80062 18.16 7.43062 18.16 6.43062 18.1C5.77152 18.1123 5.11522 18.0109 4.49062 17.8C4.07641 17.6281 3.70198 17.3728 3.39062 17.05C3.05871 16.7287 2.80547 16.3352 2.65063 15.9C2.40648 15.2952 2.27107 14.6519 2.25062 14C2.25062 13 2.19062 12.63 2.19062 10C2.19062 7.37 2.19062 7 2.25062 6C2.25511 5.35106 2.37358 4.70795 2.60063 4.1C2.77667 3.67791 3.04689 3.30166 3.39062 3C3.69444 2.65617 4.06991 2.3831 4.49062 2.2C5.10018 1.98004 5.74262 1.86508 6.39062 1.86C7.39062 1.86 7.76062 1.8 10.3906 1.8C13.0206 1.8 13.3906 1.8 14.3906 1.86C15.0254 1.86728 15.6543 1.98225 16.2506 2.2C16.7051 2.36865 17.1129 2.64285 17.4406 3C17.7683 3.30718 18.0244 3.68273 18.1906 4.1C18.4129 4.70893 18.5279 5.35178 18.5306 6C18.5806 7 18.5906 7.37 18.5906 10C18.5906 12.63 18.5806 13 18.5306 14ZM10.3906 4.87C9.37644 4.87198 8.38559 5.17453 7.54328 5.73942C6.70097 6.30431 6.045 7.1062 5.65826 8.04375C5.27151 8.98131 5.17135 10.0125 5.37042 11.0069C5.56949 12.0014 6.05886 12.9145 6.7767 13.631C7.49454 14.3474 8.40864 14.835 9.40348 15.0321C10.3983 15.2293 11.4293 15.1271 12.3661 14.7385C13.3029 14.35 14.1035 13.6924 14.6668 12.849C15.23 12.0056 15.5306 11.0142 15.5306 10C15.5319 9.3251 15.3998 8.65661 15.1419 8.03296C14.8839 7.40931 14.5052 6.84281 14.0275 6.36605C13.5498 5.88929 12.9826 5.51168 12.3584 5.25493C11.7343 4.99818 11.0655 4.86736 10.3906 4.87ZM10.3906 13.33C9.73201 13.33 9.08819 13.1347 8.54058 12.7688C7.99296 12.4029 7.56615 11.8828 7.31411 11.2743C7.06207 10.6659 6.99612 9.99631 7.12461 9.35035C7.2531 8.70439 7.57025 8.11104 8.03596 7.64533C8.50167 7.17963 9.09502 6.86247 9.74097 6.73398C10.3869 6.6055 11.0565 6.67144 11.665 6.92348C12.2734 7.17552 12.7935 7.60234 13.1594 8.14995C13.5253 8.69757 13.7206 9.34139 13.7206 10C13.7206 10.4373 13.6345 10.8703 13.4671 11.2743C13.2998 11.6784 13.0545 12.0454 12.7453 12.3547C12.4361 12.6639 12.069 12.9092 11.665 13.0765C11.2609 13.2439 10.8279 13.33 10.3906 13.33Z" fill="#2DC52A"/>
</svg>
