<svg width="21" height="20" viewBox="0 0 21 20" fill="none" xmlns="http://www.w3.org/2000/svg">
<path d="M18.8592 0.000139831H1.91922C1.7288 -0.00250479 1.53972 0.0323873 1.36278 0.102824C1.18585 0.17326 1.02452 0.27786 0.888016 0.410652C0.75151 0.543443 0.6425 0.701824 0.567211 0.876749C0.491921 1.05167 0.451827 1.23972 0.449219 1.43014V18.5701C0.451827 18.7606 0.491921 18.9486 0.567211 19.1235C0.6425 19.2985 0.75151 19.4568 0.888016 19.5896C1.02452 19.7224 1.18585 19.827 1.36278 19.8975C1.53972 19.9679 1.7288 20.0028 1.91922 20.0001H18.8592C19.0496 20.0028 19.2387 19.9679 19.4157 19.8975C19.5926 19.827 19.7539 19.7224 19.8904 19.5896C20.0269 19.4568 20.1359 19.2985 20.2112 19.1235C20.2865 18.9486 20.3266 18.7606 20.3292 18.5701V1.43014C20.3266 1.23972 20.2865 1.05167 20.2112 0.876749C20.1359 0.701824 20.0269 0.543443 19.8904 0.410652C19.7539 0.27786 19.5926 0.17326 19.4157 0.102824C19.2387 0.0323873 19.0496 -0.00250479 18.8592 0.000139831ZM6.47922 16.7401H3.47922V7.74014H6.47922V16.7401ZM4.97922 6.48014C4.56548 6.48014 4.16869 6.31578 3.87613 6.02323C3.58358 5.73067 3.41922 5.33388 3.41922 4.92014C3.41922 4.5064 3.58358 4.10961 3.87613 3.81705C4.16869 3.5245 4.56548 3.36014 4.97922 3.36014C5.19891 3.33522 5.4214 3.35699 5.63209 3.42402C5.84279 3.49105 6.03696 3.60183 6.20188 3.7491C6.36679 3.89637 6.49874 4.07682 6.58909 4.27862C6.67944 4.48043 6.72614 4.69904 6.72614 4.92014C6.72614 5.14124 6.67944 5.35985 6.58909 5.56166C6.49874 5.76346 6.36679 5.94391 6.20188 6.09118C6.03696 6.23845 5.84279 6.34923 5.63209 6.41626C5.4214 6.48329 5.19891 6.50505 4.97922 6.48014ZM17.2992 16.7401H14.2992V11.9101C14.2992 10.7001 13.8692 9.91014 12.7792 9.91014C12.4419 9.91261 12.1134 10.0184 11.8381 10.2133C11.5627 10.4082 11.3537 10.6828 11.2392 11.0001C11.161 11.2352 11.1271 11.4827 11.1392 11.7301V16.7301H8.13922C8.13922 16.7301 8.13922 8.55014 8.13922 7.73014H11.1392V9.00014C11.4117 8.52725 11.8081 8.13766 12.2857 7.87334C12.7632 7.60902 13.3038 7.47999 13.8492 7.50014C15.8492 7.50014 17.2992 8.79014 17.2992 11.5601V16.7401Z" fill="#ADADAD"/>
</svg>
