<svg xmlns="http://www.w3.org/2000/svg" xmlns:xlink="http://www.w3.org/1999/xlink" viewBox="0 0 778.6 546.79"><defs><style>.cls-1{isolation:isolate;}.cls-2{fill:#2dc52a;}.cls-3{fill:url(#linear-gradient);}.cls-4{mix-blend-mode:multiply;fill:url(#linear-gradient-2);}.cls-5{fill:url(#linear-gradient-3);}.cls-6{mix-blend-mode:overlay;fill:url(#linear-gradient-4);}.cls-7{fill:url(#linear-gradient-5);}.cls-10,.cls-8,.cls-9{mix-blend-mode:screen;}.cls-8{fill:url(#linear-gradient-6);}.cls-9{fill:url(#linear-gradient-7);}.cls-10{fill:url(#linear-gradient-8);}</style><linearGradient id="linear-gradient" x1="243.56" y1="269.86" x2="548.44" y2="269.86" gradientUnits="userSpaceOnUse"><stop offset="0" stop-color="#069547"/><stop offset="1" stop-color="#30b44a"/></linearGradient><linearGradient id="linear-gradient-2" x1="408.19" y1="168.46" x2="497.49" y2="168.46" gradientUnits="userSpaceOnUse"><stop offset="0" stop-color="#74c044"/><stop offset="1" stop-color="#30b44a"/></linearGradient><linearGradient id="linear-gradient-3" x1="294.94" y1="198.24" x2="353.67" y2="198.24" gradientUnits="userSpaceOnUse"><stop offset="0" stop-color="#2db34a"/><stop offset="1" stop-color="#216b36"/></linearGradient><linearGradient id="linear-gradient-4" x1="370.74" y1="168.82" x2="484.14" y2="168.82" xlink:href="#linear-gradient-2"/><linearGradient id="linear-gradient-5" x1="427.55" y1="8.39" x2="378.69" y2="156.48" xlink:href="#linear-gradient-3"/><linearGradient id="linear-gradient-6" x1="359.56" y1="326" x2="271.41" y2="508.39" gradientTransform="translate(46.93 -71.24) rotate(-9.98)" xlink:href="#linear-gradient-3"/><linearGradient id="linear-gradient-7" x1="374.02" y1="135.79" x2="303.65" y2="281.39" gradientTransform="translate(46.93 -71.24) rotate(-9.98)" xlink:href="#linear-gradient-3"/><linearGradient id="linear-gradient-8" x1="283.45" y1="218.71" x2="188.71" y2="414.71" gradientTransform="translate(46.93 -71.24) rotate(-9.98)" xlink:href="#linear-gradient-3"/></defs><g class="cls-1"><g id="Layer_1"><path class="cls-2" d="M107.77,456c0,9.53-4.58,18.7-16,23.82,14.47,4.4,19.76,19.75,19.76,27.51,0,27.52-20.64,36.34-46.22,36.34H6.7V420.15H65.26C89.61,420.15,107.77,431.08,107.77,456ZM29.63,469.71H65.26c14.64,0,19.41-6.17,19.41-13.23,0-5.64-4.59-15.17-19.41-15.17H29.63Zm0,52.21H65.26c9.53,0,23.11-3.17,23.11-14.81,0-11.12-13.58-16.94-23.11-16.94H29.63Z" transform="translate(-6.7)"/><path class="cls-2" d="M220,543.62H127.53V420.15H220v22.57H150.64v28.4h66.85v21.7H150.64v27.87H220Z" transform="translate(-6.7)"/><path class="cls-2" d="M235.48,476.24h65.09V496H235.48Z" transform="translate(-6.7)"/><path class="cls-2" d="M377,507.28H342v36.34H318.74V420.15c19.4,0,38.81-.18,58.21-.18C437.27,420,437.45,507.28,377,507.28ZM342,485.94H377c29.81,0,29.63-43.75,0-43.75H342Z" transform="translate(-6.7)"/><path class="cls-2" d="M525.65,520.33H461.09l-10.58,23.29H425.28l55.39-123.47h25.4l55.39,123.47h-25.4Zm-32.28-74.26-22.93,52.57H516.3Z" transform="translate(-6.7)"/><path class="cls-2" d="M646.3,450c-4.23-7.06-15.87-13.76-29.28-13.76-17.29,0-25.58,7.23-25.58,16.4,0,10.76,12.7,13.76,27.52,15.52,25.75,3.18,49.74,9.88,49.74,39.34,0,27.52-24.34,39.33-51.86,39.33-25.22,0-44.62-7.76-53.8-30.34l19.41-10.05C587.92,520,602.2,526,617.2,526c14.64,0,28.4-5.12,28.4-18.52,0-11.64-12.18-16.41-28.58-18.17-25.22-3-48.51-9.7-48.51-37.39,0-25.4,25-35.81,47.8-36,19.23,0,39.16,5.47,48.51,24.52Z" transform="translate(-6.7)"/><path class="cls-2" d="M762.9,450c-4.24-7.06-15.88-13.76-29.28-13.76-17.29,0-25.58,7.23-25.58,16.4,0,10.76,12.7,13.76,27.52,15.52,25.75,3.18,49.74,9.88,49.74,39.34,0,27.52-24.34,39.33-51.86,39.33-25.22,0-44.63-7.76-53.8-30.34L699,506.4C704.51,520,718.8,526,733.79,526c14.64,0,28.4-5.12,28.4-18.52,0-11.64-12.17-16.41-28.57-18.17-25.23-3-48.51-9.7-48.51-37.39,0-25.4,25-35.81,47.8-36,19.23,0,39.16,5.47,48.51,24.52Z" transform="translate(-6.7)"/><path class="cls-3" d="M492.93,333.36c-117.83,118.76-247.87,3.24-249.37,1.9,42.94,20.33,201.61,64.54,240.56-66.33,14.92-50.1,1.81-74.17-20.07-84.8A67,67,0,0,0,450,179.27c-13.53-3.15-28.53-3-41.81-1.65a217.17,217.17,0,0,0-37.45,7.23c1.88-1.89,3.81-3.71,5.82-5.42,15.17-13.11,33.72-21.15,52.94-24.62a126.7,126.7,0,0,1,54.64,2.08,114.76,114.76,0,0,1,13.35,4.44C551.75,183.25,579.66,246,492.93,333.36Z" transform="translate(-6.7)"/><path class="cls-4" d="M497.49,161.33a126.79,126.79,0,0,1-33.44,22.8c-16.4-8-37.74-8.36-55.86-6.51,17.8-7.62,32.74-16,45-24.84A121.63,121.63,0,0,1,497.49,161.33Z" transform="translate(-6.7)"/><path class="cls-5" d="M349.64,72.09s23.76,135-44.17,252.31c0,0-17.43-37-7.45-107.64S340.7,120.68,349.64,72.09Z" transform="translate(-6.7)"/><path class="cls-6" d="M484.14,156.89A125.58,125.58,0,0,1,450,179.27c-13.53-3.15-28.53-3-41.81-1.65a217.17,217.17,0,0,0-37.45,7.23c1.88-1.89,3.81-3.71,5.82-5.42,20.8-7.34,38.37-15.71,52.94-24.62a126.7,126.7,0,0,1,54.64,2.08Z" transform="translate(-6.7)"/><path class="cls-7" d="M370.75,184.85S475.2,224.92,534.36,94.79C591.69-31.31,366.9-22.53,271.82,67.88c0,0,172.74-57.48,209.9-15.75C510.34,84.27,483.81,149.12,370.75,184.85Z" transform="translate(-6.7)"/><path class="cls-8" d="M499.12,170.62s41.67,59,8.25,118.25c-35.08,62.21-101.07,96.91-202.08,73.86,0,0,113.91,59,202.5-50.58S499.12,170.62,499.12,170.62Z" transform="translate(-6.7)"/><path class="cls-9" d="M305.23,47.83S390.87-2.23,467.68,7.58s112,69-9.85,163.56c0,0,93.83-99.77,46.73-132.14S379,26.11,305.23,47.83Z" transform="translate(-6.7)"/><path class="cls-10" d="M352.57,91.8S349.09,246,309.89,306c0,0,.08-49.22,8.36-82.94S351.74,108.39,352.57,91.8Z" transform="translate(-6.7)"/></g></g></svg>