<svg width="18" height="17" viewBox="0 0 18 17" fill="none" xmlns="http://www.w3.org/2000/svg">
<path d="M15.668 4.00002H13.168V2.33335C13.168 1.41419 12.4205 0.666687 11.5013 0.666687H6.5013C5.58214 0.666687 4.83464 1.41419 4.83464 2.33335V4.00002H2.33464C1.41547 4.00002 0.667969 4.74752 0.667969 5.66669V8.16669H17.3346V5.66669C17.3346 4.74752 16.5871 4.00002 15.668 4.00002ZM6.5013 2.33335H11.5013V4.00002H6.5013V2.33335ZM10.668 10.6667H7.33464V9.00002H0.667969V14.8334C0.667969 15.7525 1.41547 16.5 2.33464 16.5H15.668C16.5871 16.5 17.3346 15.7525 17.3346 14.8334V9.00002H10.668V10.6667Z" fill="white"/>
</svg>
