<svg width="21" height="18" viewBox="0 0 21 18" fill="none" xmlns="http://www.w3.org/2000/svg">
<path d="M20.3906 2.80021C19.639 3.1263 18.8441 3.34187 18.0306 3.44021C18.8888 2.92753 19.5319 2.12099 19.8406 1.17021C19.0342 1.65027 18.1514 1.98851 17.2306 2.17021C16.6152 1.50278 15.7956 1.05851 14.9004 0.907061C14.0053 0.755616 13.0852 0.905568 12.2844 1.3334C11.4837 1.76123 10.8476 2.44274 10.4759 3.27105C10.1042 4.09935 10.0179 5.0276 10.2306 5.91021C8.60005 5.82774 7.00507 5.40316 5.54928 4.66407C4.09349 3.92498 2.80947 2.8879 1.78063 1.62021C1.41976 2.25038 1.23014 2.96403 1.23062 3.69021C1.22935 4.36459 1.39484 5.02883 1.71238 5.62377C2.02992 6.21872 2.48964 6.72592 3.05062 7.10021C2.3986 7.08247 1.76051 6.90751 1.19062 6.59021V6.64021C1.19551 7.5851 1.52662 8.4993 2.12794 9.22818C2.72926 9.95705 3.56388 10.4559 4.49062 10.6402C4.13388 10.7488 3.7635 10.806 3.39062 10.8102C3.13252 10.8072 2.87505 10.7838 2.62063 10.7402C2.88453 11.553 3.39525 12.2634 4.0817 12.7724C4.76815 13.2814 5.5962 13.5638 6.45063 13.5802C5.00783 14.7155 3.22651 15.3351 1.39062 15.3402C1.05636 15.3413 0.722361 15.3213 0.390625 15.2802C2.26505 16.4905 4.44944 17.1329 6.68062 17.1302C8.22032 17.1462 9.74776 16.8552 11.1737 16.2743C12.5997 15.6934 13.8956 14.8341 14.9858 13.7467C16.076 12.6593 16.9386 11.3656 17.5232 9.94112C18.1078 8.51663 18.4027 6.98994 18.3906 5.45021C18.3906 5.28021 18.3906 5.10021 18.3906 4.92021C19.1753 4.33502 19.8521 3.61763 20.3906 2.80021Z" fill="#ADADAD"/>
</svg>
