<?xml version="1.0" standalone="no"?>
<!DOCTYPE svg PUBLIC "-//W3C//DTD SVG 20010904//EN"
 "http://www.w3.org/TR/2001/REC-SVG-20010904/DTD/svg10.dtd">
<svg version="1.0" xmlns="http://www.w3.org/2000/svg"
 width="100.000000pt" height="100.000000pt" viewBox="0 0 100.000000 100.000000"
 preserveAspectRatio="xMidYMid meet">

<g transform="translate(0.000000,100.000000) scale(0.100000,-0.100000)"
fill="#000000" stroke="none">
<path d="M386 944 c-77 -19 -149 -61 -213 -124 -174 -176 -174 -464 0 -640
184 -184 467 -186 650 -3 184 184 180 472 -9 653 -119 114 -266 153 -428 114z
m219 -39 c209 -54 344 -261 308 -471 -12 -69 -47 -151 -85 -196 l-23 -28 -90
36 c-49 20 -96 41 -102 46 -18 14 -16 83 2 98 8 6 17 22 21 33 4 12 15 32 25
45 13 17 18 43 20 95 3 146 2 166 -14 191 -21 32 -128 86 -171 86 -69 0 -133
-36 -162 -91 -21 -41 -16 -253 6 -282 10 -12 20 -32 24 -44 4 -11 13 -27 21
-33 19 -15 20 -84 2 -99 -8 -6 -44 -22 -80 -36 -37 -14 -76 -30 -88 -37 -18
-12 -23 -10 -45 17 -71 87 -106 219 -87 331 43 247 278 401 518 339z m-25
-132 c61 -34 76 -71 60 -153 -6 -30 -7 -69 -4 -87 5 -25 2 -34 -10 -39 -9 -3
-16 -14 -16 -24 0 -9 -11 -34 -25 -54 -17 -25 -25 -50 -25 -80 0 -58 29 -86
125 -121 41 -15 77 -30 80 -34 7 -13 -98 -70 -160 -86 -75 -19 -135 -19 -210
0 -61 16 -167 73 -160 85 3 4 38 19 79 34 96 35 126 64 126 122 0 30 -8 55
-25 80 -14 20 -25 45 -25 55 0 9 -5 19 -12 21 -20 7 -22 212 -2 249 32 62 123
76 204 32z"/>
</g>
</svg>
