<?xml version="1.0" standalone="no"?>
<!DOCTYPE svg PUBLIC "-//W3C//DTD SVG 20010904//EN"
 "http://www.w3.org/TR/2001/REC-SVG-20010904/DTD/svg10.dtd">
<svg version="1.0" xmlns="http://www.w3.org/2000/svg"
 width="36.000000pt" height="36.000000pt" viewBox="0 0 36.000000 36.000000"
 preserveAspectRatio="xMidYMid meet">

<g transform="translate(0.000000,36.000000) scale(0.100000,-0.100000)"
fill="#000000" stroke="none">
<path d="M122 346 c-55 -19 -98 -68 -112 -124 -41 -173 166 -290 294 -166 95
92 51 260 -78 293 -54 13 -61 13 -104 -3z m40 -103 c17 -15 19 -15 36 0 27 25
62 22 62 -5 0 -12 -7 -30 -17 -40 -15 -17 -15 -19 0 -36 10 -10 17 -28 17 -40
0 -27 -35 -30 -62 -5 -17 15 -19 15 -36 0 -27 -25 -62 -22 -62 5 0 12 7 30 17
40 15 17 15 19 0 36 -10 10 -17 28 -17 40 0 27 35 30 62 5z"/>
</g>
</svg>
